<svg xmlns="http://www.w3.org/2000/svg" width="1600" height="1000" viewBox="0 0 1600 1000">
  <defs>
    <linearGradient id="bg" x1="0" y1="0" x2="1" y2="1">
      <stop offset="0" stop-color="#f8fafc"/>
      <stop offset="1" stop-color="#eef2ff"/>
    </linearGradient>
    <filter id="shadow" x="-15%" y="-15%" width="130%" height="140%">
      <feDropShadow dx="0" dy="5" stdDeviation="7" flood-color="#0f172a" flood-opacity=".12"/>
    </filter>
    <marker id="arrow" viewBox="0 0 10 10" refX="9" refY="5" markerWidth="7" markerHeight="7" orient="auto-start-reverse">
      <path d="M0 0L10 5L0 10z" fill="#475569"/>
    </marker>
    <style>
      .title{font:700 36px Arial,sans-serif;fill:#0f172a}
      .subtitle{font:400 17px Arial,sans-serif;fill:#64748b}
      .group{font:700 19px Arial,sans-serif;fill:#334155}
      .node-title{font:700 17px Arial,sans-serif;fill:#0f172a}
      .node-text{font:400 14px Arial,sans-serif;fill:#475569}
      .label{font:600 13px Arial,sans-serif;fill:#475569}
      .line{fill:none;stroke:#475569;stroke-width:2.2;marker-end:url(#arrow)}
      .dash{fill:none;stroke:#64748b;stroke-width:2;stroke-dasharray:7 6;marker-end:url(#arrow)}
    </style>
  </defs>

  <rect width="1600" height="1000" fill="url(#bg)"/>
  <text x="800" y="58" text-anchor="middle" class="title">KIẾN TRÚC HỆ THỐNG NICHAN</text>
  <text x="800" y="88" text-anchor="middle" class="subtitle">Nền tảng quản lý và tổ chức sự kiện</text>

  <!-- Users -->
  <rect x="45" y="135" width="220" height="680" rx="24" fill="#fff" stroke="#cbd5e1" stroke-width="2"/>
  <text x="155" y="175" text-anchor="middle" class="group">NGƯỜI DÙNG</text>
  <g filter="url(#shadow)">
    <rect x="75" y="270" width="160" height="82" rx="16" fill="#eff6ff" stroke="#60a5fa"/>
    <rect x="75" y="410" width="160" height="82" rx="16" fill="#f0fdf4" stroke="#4ade80"/>
    <rect x="75" y="550" width="160" height="82" rx="16" fill="#fff7ed" stroke="#fb923c"/>
  </g>
  <text x="155" y="304" text-anchor="middle" class="node-title">Khách hàng</text>
  <text x="155" y="328" text-anchor="middle" class="node-text">Customer</text>
  <text x="155" y="444" text-anchor="middle" class="node-title">Nhân viên tổ chức</text>
  <text x="155" y="468" text-anchor="middle" class="node-text">Organizer</text>
  <text x="155" y="584" text-anchor="middle" class="node-title">Quản trị viên</text>
  <text x="155" y="608" text-anchor="middle" class="node-text">Admin</text>

  <!-- Frontend -->
  <rect x="325" y="135" width="315" height="680" rx="24" fill="#fff" stroke="#93c5fd" stroke-width="2.5"/>
  <rect x="325" y="135" width="315" height="64" rx="24" fill="#dbeafe"/>
  <path d="M325 175v24h315v-24" fill="#dbeafe"/>
  <text x="482" y="175" text-anchor="middle" class="group">FRONTEND</text>
  <g filter="url(#shadow)">
    <rect x="365" y="235" width="235" height="94" rx="16" fill="#eff6ff" stroke="#60a5fa"/>
    <rect x="365" y="370" width="235" height="110" rx="16" fill="#f8fafc" stroke="#94a3b8"/>
    <rect x="365" y="520" width="235" height="110" rx="16" fill="#f8fafc" stroke="#94a3b8"/>
    <rect x="365" y="670" width="110" height="80" rx="16" fill="#fefce8" stroke="#facc15"/>
    <rect x="490" y="670" width="110" height="80" rx="16" fill="#faf5ff" stroke="#c084fc"/>
  </g>
  <text x="482" y="272" text-anchor="middle" class="node-title">React 18 SPA</text>
  <text x="482" y="297" text-anchor="middle" class="node-text">Vite · TypeScript</text>
  <text x="482" y="407" text-anchor="middle" class="node-title">Giao diện &amp; định tuyến</text>
  <text x="482" y="433" text-anchor="middle" class="node-text">React Router · Tailwind</text>
  <text x="482" y="456" text-anchor="middle" class="node-text">Radix UI · Recharts</text>
  <text x="482" y="557" text-anchor="middle" class="node-title">State &amp; nghiệp vụ UI</text>
  <text x="482" y="583" text-anchor="middle" class="node-text">React Query · Context</text>
  <text x="482" y="606" text-anchor="middle" class="node-text">Customer · Organizer · Admin</text>
  <text x="420" y="704" text-anchor="middle" class="node-title">REST</text>
  <text x="420" y="728" text-anchor="middle" class="node-text">Fetch + JWT</text>
  <text x="545" y="704" text-anchor="middle" class="node-title">Realtime</text>
  <text x="545" y="728" text-anchor="middle" class="node-text">Socket.IO</text>

  <!-- Backend -->
  <rect x="700" y="135" width="490" height="680" rx="24" fill="#fff" stroke="#86efac" stroke-width="2.5"/>
  <rect x="700" y="135" width="490" height="64" rx="24" fill="#dcfce7"/>
  <path d="M700 175v24h490v-24" fill="#dcfce7"/>
  <text x="945" y="175" text-anchor="middle" class="group">BACKEND — NODE.JS / EXPRESS</text>
  <g filter="url(#shadow)">
    <rect x="740" y="230" width="410" height="78" rx="16" fill="#f0fdf4" stroke="#4ade80"/>
    <rect x="740" y="340" width="410" height="78" rx="16" fill="#f8fafc" stroke="#94a3b8"/>
    <rect x="740" y="450" width="190" height="116" rx="16" fill="#eff6ff" stroke="#60a5fa"/>
    <rect x="960" y="450" width="190" height="116" rx="16" fill="#fff7ed" stroke="#fb923c"/>
    <rect x="740" y="600" width="270" height="106" rx="16" fill="#f8fafc" stroke="#94a3b8"/>
    <rect x="1040" y="600" width="110" height="106" rx="16" fill="#faf5ff" stroke="#c084fc"/>
    <rect x="820" y="740" width="250" height="50" rx="14" fill="#fefce8" stroke="#facc15"/>
  </g>
  <text x="945" y="261" text-anchor="middle" class="node-title">HTTP Server + API /api</text>
  <text x="945" y="286" text-anchor="middle" class="node-text">CORS · Helmet · JSON · Error handler</text>
  <text x="945" y="371" text-anchor="middle" class="node-title">Middleware</text>
  <text x="945" y="396" text-anchor="middle" class="node-text">JWT authentication · Role authorization · Zod</text>
  <text x="835" y="482" text-anchor="middle" class="node-title">Route modules</text>
  <text x="835" y="509" text-anchor="middle" class="node-text">Auth · Public · Customer</text>
  <text x="835" y="532" text-anchor="middle" class="node-text">Organizer · Admin · Shared</text>
  <text x="1055" y="482" text-anchor="middle" class="node-title">Business services</text>
  <text x="1055" y="509" text-anchor="middle" class="node-text">Project · Budget · Contract</text>
  <text x="1055" y="532" text-anchor="middle" class="node-text">Payment · Report · Content</text>
  <text x="875" y="634" text-anchor="middle" class="node-title">Prisma ORM</text>
  <text x="875" y="659" text-anchor="middle" class="node-text">Data access · Transaction</text>
  <text x="875" y="682" text-anchor="middle" class="node-text">PostgreSQL datasource</text>
  <text x="1095" y="634" text-anchor="middle" class="node-title">Socket.IO</text>
  <text x="1095" y="659" text-anchor="middle" class="node-text">Chat rooms</text>
  <text x="1095" y="682" text-anchor="middle" class="node-text">Notifications</text>
  <text x="945" y="772" text-anchor="middle" class="node-title">Multer upload pipeline</text>

  <!-- Infrastructure -->
  <rect x="1250" y="135" width="305" height="680" rx="24" fill="#fff" stroke="#f9a8d4" stroke-width="2.5"/>
  <rect x="1250" y="135" width="305" height="64" rx="24" fill="#fce7f3"/>
  <path d="M1250 175v24h305v-24" fill="#fce7f3"/>
  <text x="1402" y="175" text-anchor="middle" class="group">DATA &amp; DỊCH VỤ NGOÀI</text>
  <g filter="url(#shadow)">
    <rect x="1290" y="230" width="225" height="88" rx="16" fill="#eef2ff" stroke="#818cf8"/>
    <rect x="1290" y="350" width="225" height="88" rx="16" fill="#eff6ff" stroke="#38bdf8"/>
    <rect x="1290" y="470" width="225" height="88" rx="16" fill="#fff7ed" stroke="#fb923c"/>
    <rect x="1290" y="590" width="225" height="88" rx="16" fill="#f0fdf4" stroke="#4ade80"/>
    <rect x="1290" y="710" width="225" height="68" rx="16" fill="#f8fafc" stroke="#94a3b8"/>
  </g>
  <text x="1402" y="265" text-anchor="middle" class="node-title">PostgreSQL</text>
  <text x="1402" y="290" text-anchor="middle" class="node-text">Cơ sở dữ liệu NiChanDb</text>
  <text x="1402" y="385" text-anchor="middle" class="node-title">Cloudinary</text>
  <text x="1402" y="410" text-anchor="middle" class="node-text">Ảnh và tài liệu</text>
  <text x="1402" y="505" text-anchor="middle" class="node-title">SePay</text>
  <text x="1402" y="530" text-anchor="middle" class="node-text">QR · Payment webhook</text>
  <text x="1402" y="625" text-anchor="middle" class="node-title">SMTP / Ethereal</text>
  <text x="1402" y="650" text-anchor="middle" class="node-text">Email giao dịch</text>
  <text x="1402" y="740" text-anchor="middle" class="node-title">Local uploads</text>
  <text x="1402" y="763" text-anchor="middle" class="node-text">Development fallback</text>

  <!-- Connections -->
  <path d="M265 475H325" class="line"/>
  <text x="295" y="461" text-anchor="middle" class="label">Web</text>
  <path d="M640 704H700" class="line"/>
  <text x="670" y="688" text-anchor="middle" class="label">HTTPS</text>
  <path d="M640 732H700" class="line"/>
  <text x="670" y="754" text-anchor="middle" class="label">WS</text>
  <path d="M1190 653C1220 653 1220 274 1250 274" class="line"/>
  <path d="M1070 765C1210 765 1190 394 1250 394" class="line"/>
  <path d="M1150 508H1250" class="line"/>
  <text x="1200" y="492" text-anchor="middle" class="label">Webhook</text>
  <path d="M1150 540C1210 540 1200 634 1250 634" class="line"/>
  <path d="M1070 775C1180 815 1190 744 1250 744" class="dash"/>

  <!-- Runtime -->
  <rect x="325" y="860" width="865" height="78" rx="18" fill="#0f172a"/>
  <text x="365" y="892" class="node-title" fill="#fff" style="fill:#fff">Môi trường phát triển</text>
  <text x="365" y="917" class="node-text" fill="#cbd5e1" style="fill:#cbd5e1">Vite :8080 proxy /api · /socket.io · /uploads → Express + Socket.IO :3000 → PostgreSQL</text>
  <rect x="1250" y="860" width="305" height="78" rx="18" fill="#fff" stroke="#cbd5e1"/>
  <text x="1402" y="892" text-anchor="middle" class="node-title">Monorepo</text>
  <text x="1402" y="917" text-anchor="middle" class="node-text">npm workspaces · Turborepo</text>
</svg>
